<svg width="24" height="24" viewBox="0 0 24 24" fill="none" xmlns="http://www.w3.org/2000/svg">
<path d="M20.9397 6.3817L19.4078 3.31787C19.3601 3.22234 19.2867 3.14199 19.1959 3.08584C19.1051 3.02969 19.0004 2.99997 18.8936 3H5.10638C4.99961 2.99997 4.89494 3.02969 4.80412 3.08584C4.7133 3.14199 4.63993 3.22234 4.59223 3.31787L3.06032 6.3817C3.02092 6.46152 3.00029 6.54929 3 6.6383V19.6596C3 20.0151 3.14122 20.356 3.3926 20.6074C3.64398 20.8588 3.98492 21 4.34043 21H19.6596C20.0151 21 20.356 20.8588 20.6074 20.6074C20.8588 20.356 21 20.0151 21 19.6596V6.6383C20.9997 6.54929 20.9791 6.46152 20.9397 6.3817ZM5.4616 4.14894H18.5384L19.4959 6.06383H4.50415L5.4616 4.14894ZM19.6596 19.8511H4.34043C4.28964 19.8511 4.24093 19.8309 4.20502 19.795C4.16911 19.7591 4.14894 19.7104 4.14894 19.6596V7.21277H19.8511V19.6596C19.8511 19.7104 19.8309 19.7591 19.795 19.795C19.7591 19.8309 19.7104 19.8511 19.6596 19.8511ZM15.4698 13.8919C15.5774 13.9996 15.6378 14.1456 15.6378 14.2979C15.6378 14.4501 15.5774 14.5961 15.4698 14.7038L12.406 17.7677C12.2982 17.8752 12.1522 17.9357 12 17.9357C11.8478 17.9357 11.7018 17.8752 11.594 17.7677L8.53021 14.7038C8.42874 14.5949 8.3735 14.4509 8.37612 14.3021C8.37875 14.1532 8.43904 14.0112 8.54429 13.906C8.64954 13.8007 8.79154 13.7404 8.94037 13.7378C9.08919 13.7352 9.23323 13.7904 9.34213 13.8919L11.4255 15.9744V9.70213C11.4255 9.54977 11.4861 9.40365 11.5938 9.29592C11.7015 9.18818 11.8476 9.12766 12 9.12766C12.1524 9.12766 12.2985 9.18818 12.4062 9.29592C12.5139 9.40365 12.5745 9.54977 12.5745 9.70213V15.9744L14.6579 13.8919C14.7656 13.7843 14.9116 13.7239 15.0638 13.7239C15.2161 13.7239 15.3621 13.7843 15.4698 13.8919Z" fill="#739CCB" stroke="#739CCB" stroke-width="0.5"/>
</svg>
