<svg width="24" height="27" viewBox="0 0 24 27" fill="none" xmlns="http://www.w3.org/2000/svg">
<path d="M10.869 18.4787C10.811 18.4159 10.563 18.1789 10.359 17.9581C9.076 16.6635 6.976 13.2863 6.335 11.5187C6.232 11.2503 6.014 10.5716 6 10.209C6 9.8615 6.072 9.53028 6.218 9.21421C6.422 8.82021 6.743 8.50414 7.122 8.33095C7.385 8.21946 8.172 8.04627 8.186 8.04627C9.047 7.87309 10.446 7.77783 11.992 7.77783C13.465 7.77783 14.807 7.87309 15.681 8.01488C15.695 8.03112 16.673 8.20431 17.008 8.39373C17.62 8.74119 18 9.41987 18 10.1462V10.209C17.985 10.682 17.605 11.6767 17.591 11.6767C16.949 13.3491 14.952 16.6483 13.625 17.9743C13.625 17.9743 13.284 18.3477 13.071 18.5101C12.765 18.7634 12.386 18.8889 12.007 18.8889C11.584 18.8889 11.19 18.7471 10.869 18.4787Z" fill="#24252C"/>
</svg>
