<svg width="24" height="27" viewBox="0 0 24 27" fill="none" xmlns="http://www.w3.org/2000/svg">
<path d="M16.7502 3.95558V2.22225C16.7502 1.76669 16.4102 1.38892 16.0002 1.38892C15.5902 1.38892 15.2502 1.76669 15.2502 2.22225V3.88892H8.75023V2.22225C8.75023 1.76669 8.41023 1.38892 8.00023 1.38892C7.59023 1.38892 7.25023 1.76669 7.25023 2.22225V3.95558C4.55023 4.23336 3.24023 6.02225 3.04023 8.6778C3.02023 9.00002 3.26023 9.26669 3.54023 9.26669H20.4602C20.7502 9.26669 20.9902 8.98891 20.9602 8.6778C20.7602 6.02225 19.4502 4.23336 16.7502 3.95558Z" fill="#87B5E3"/>
<path opacity="0.4" d="M20 10.9333C20.55 10.9333 21 11.4333 21 12.0445V18.8889C21 22.2222 19.5 24.4445 16 24.4445H8C4.5 24.4445 3 22.2222 3 18.8889V12.0445C3 11.4333 3.45 10.9333 4 10.9333H20Z" fill="#87B5E3"/>
<path d="M8.5 16.6667C8.24 16.6667 7.98 16.5444 7.79 16.3444C7.61 16.1333 7.5 15.8445 7.5 15.5556C7.5 15.2667 7.61 14.9778 7.79 14.7667C8.07 14.4556 8.51 14.3555 8.88 14.5333C9.01 14.5889 9.12 14.6667 9.21 14.7667C9.39 14.9778 9.5 15.2667 9.5 15.5556C9.5 15.8445 9.39 16.1333 9.21 16.3444C9.02 16.5444 8.76 16.6667 8.5 16.6667Z" fill="#87B5E3"/>
<path d="M12 16.6667C11.74 16.6667 11.48 16.5444 11.29 16.3444C11.11 16.1333 11 15.8445 11 15.5556C11 15.2667 11.11 14.9778 11.29 14.7667C11.38 14.6667 11.49 14.5889 11.62 14.5333C11.99 14.3555 12.43 14.4556 12.71 14.7667C12.89 14.9778 13 15.2667 13 15.5556C13 15.8445 12.89 16.1333 12.71 16.3444C12.66 16.3889 12.61 16.4333 12.56 16.4778C12.5 16.5222 12.44 16.5556 12.38 16.5778C12.32 16.6111 12.26 16.6334 12.2 16.6445C12.13 16.6556 12.07 16.6667 12 16.6667Z" fill="#87B5E3"/>
<path d="M15.5 16.6667C15.24 16.6667 14.98 16.5445 14.79 16.3445C14.61 16.1334 14.5 15.8445 14.5 15.5556C14.5 15.2667 14.61 14.9778 14.79 14.7667C14.89 14.6667 14.99 14.5889 15.12 14.5333C15.3 14.4445 15.5 14.4222 15.7 14.4667C15.76 14.4778 15.82 14.5 15.88 14.5333C15.94 14.5556 16 14.5889 16.06 14.6334C16.11 14.6778 16.16 14.7223 16.21 14.7667C16.39 14.9778 16.5 15.2667 16.5 15.5556C16.5 15.8445 16.39 16.1334 16.21 16.3445C16.16 16.3889 16.11 16.4333 16.06 16.4778C16 16.5222 15.94 16.5556 15.88 16.5778C15.82 16.6112 15.76 16.6334 15.7 16.6445C15.63 16.6556 15.56 16.6667 15.5 16.6667Z" fill="#87B5E3"/>
<path d="M8.5 20.5556C8.37 20.5556 8.24 20.5223 8.12 20.4667C7.99 20.4112 7.89 20.3334 7.79 20.2334C7.61 20.0223 7.5 19.7334 7.5 19.4445C7.5 19.1556 7.61 18.8667 7.79 18.6556C7.89 18.5556 7.99 18.4778 8.12 18.4223C8.3 18.3334 8.5 18.3112 8.7 18.3556C8.76 18.3667 8.82 18.3889 8.88 18.4223C8.94 18.4445 9 18.4778 9.06 18.5223C9.11 18.5667 9.16 18.6112 9.21 18.6556C9.39 18.8667 9.5 19.1556 9.5 19.4445C9.5 19.7334 9.39 20.0223 9.21 20.2334C9.16 20.2778 9.11 20.3334 9.06 20.3667C9 20.4112 8.94 20.4445 8.88 20.4667C8.82 20.5001 8.76 20.5223 8.7 20.5334C8.63 20.5445 8.57 20.5556 8.5 20.5556Z" fill="#87B5E3"/>
<path d="M12 20.5556C11.74 20.5556 11.48 20.4334 11.29 20.2334C11.11 20.0223 11 19.7334 11 19.4445C11 19.1556 11.11 18.8667 11.29 18.6556C11.66 18.2445 12.34 18.2445 12.71 18.6556C12.89 18.8667 13 19.1556 13 19.4445C13 19.7334 12.89 20.0223 12.71 20.2334C12.52 20.4334 12.26 20.5556 12 20.5556Z" fill="#87B5E3"/>
<path d="M15.5 20.5556C15.24 20.5556 14.98 20.4334 14.79 20.2334C14.61 20.0223 14.5 19.7334 14.5 19.4445C14.5 19.1556 14.61 18.8667 14.79 18.6556C15.16 18.2445 15.84 18.2445 16.21 18.6556C16.39 18.8667 16.5 19.1556 16.5 19.4445C16.5 19.7334 16.39 20.0223 16.21 20.2334C16.02 20.4334 15.76 20.5556 15.5 20.5556Z" fill="#87B5E3"/>
</svg>
