<svg width="24" height="24" viewBox="0 0 24 24" fill="none" xmlns="http://www.w3.org/2000/svg">
<path d="M9.86538 6.05357V6.39286H13.1346V6.05357C13.1346 5.60365 12.9624 5.17216 12.6558 4.85402C12.3493 4.53587 11.9335 4.35714 11.5 4.35714C11.0665 4.35714 10.6507 4.53587 10.3442 4.85402C10.0376 5.17216 9.86538 5.60365 9.86538 6.05357ZM8.55769 6.39286V6.05357C8.55769 5.24371 8.86768 4.46703 9.41947 3.89437C9.97126 3.32171 10.7197 3 11.5 3C12.2803 3 13.0287 3.32171 13.5805 3.89437C14.1323 4.46703 14.4423 5.24371 14.4423 6.05357V6.39286H19.3462C19.5196 6.39286 19.6859 6.46435 19.8085 6.59161C19.9311 6.71886 20 6.89146 20 7.07143C20 7.2514 19.9311 7.42399 19.8085 7.55125C19.6859 7.67851 19.5196 7.75 19.3462 7.75H18.3602L17.1231 18.9926C17.0319 19.8206 16.6502 20.5847 16.0509 21.1394C15.4515 21.6941 14.6765 22.0004 13.8735 22H9.12654C8.32353 22.0004 7.54846 21.6941 6.94913 21.1394C6.34981 20.5847 5.96815 19.8206 5.87692 18.9926L4.63985 7.75H3.65385C3.48044 7.75 3.31413 7.67851 3.19151 7.55125C3.06889 7.42399 3 7.2514 3 7.07143C3 6.89146 3.06889 6.71886 3.19151 6.59161C3.31413 6.46435 3.48044 6.39286 3.65385 6.39286H8.55769ZM10.1923 10.8036C10.1923 10.6236 10.1234 10.451 10.0008 10.3237C9.87818 10.1965 9.71187 10.125 9.53846 10.125C9.36505 10.125 9.19874 10.1965 9.07612 10.3237C8.9535 10.451 8.88462 10.6236 8.88462 10.8036V17.5893C8.88462 17.7693 8.9535 17.9419 9.07612 18.0691C9.19874 18.1964 9.36505 18.2679 9.53846 18.2679C9.71187 18.2679 9.87818 18.1964 10.0008 18.0691C10.1234 17.9419 10.1923 17.7693 10.1923 17.5893V10.8036ZM13.4615 10.125C13.2881 10.125 13.1218 10.1965 12.9992 10.3237C12.8766 10.451 12.8077 10.6236 12.8077 10.8036V17.5893C12.8077 17.7693 12.8766 17.9419 12.9992 18.0691C13.1218 18.1964 13.2881 18.2679 13.4615 18.2679C13.6349 18.2679 13.8013 18.1964 13.9239 18.0691C14.0465 17.9419 14.1154 17.7693 14.1154 17.5893V10.8036C14.1154 10.6236 14.0465 10.451 13.9239 10.3237C13.8013 10.1965 13.6349 10.125 13.4615 10.125Z" fill="white"/>
</svg>
