<svg width="24" height="24" viewBox="0 0 24 24" fill="none" xmlns="http://www.w3.org/2000/svg">
<path d="M19 13V9.368C19 5.895 19 4.158 17.975 3.079C16.95 2 15.3 2 12 2H9C5.7 2 4.05 2 3.025 3.08C2 4.157 2 5.894 2 9.367V14.631C2 18.104 2 19.841 3.025 20.92C4.05 21.999 5.7 22 9 22H10.5M13 20C13 20 14 20 15 22C15 22 18.177 17 21 16" stroke="#739CCB" stroke-width="1.8" stroke-linecap="round" stroke-linejoin="round"/>
<path d="M7.5 2L7.582 2.493C7.782 3.69 7.882 4.289 8.302 4.645C8.72 5 9.327 5 10.541 5H12.458C13.671 5 14.278 5 14.698 4.645C15.118 4.289 15.218 3.69 15.417 2.493L15.5 2M7.5 16H11.5M7.5 11H15.5" stroke="#739CCB" stroke-width="1.8" stroke-linecap="round" stroke-linejoin="round"/>
</svg>
