<svg width="24" height="24" viewBox="0 0 24 24" fill="none" xmlns="http://www.w3.org/2000/svg">
<path d="M6.75 2.25C6.75 2.05109 6.82902 1.86032 6.96967 1.71967C7.11032 1.57902 7.30109 1.5 7.5 1.5H16.5C16.6989 1.5 16.8897 1.57902 17.0303 1.71967C17.171 1.86032 17.25 2.05109 17.25 2.25V5.439C15.7211 4.33796 13.8841 3.74694 12 3.75C10.041 3.75 8.2275 4.37625 6.75 5.439V2.25ZM12 20.25C13.959 20.25 15.7725 19.6237 17.25 18.561V21.75C17.25 21.9489 17.171 22.1397 17.0303 22.2803C16.8897 22.421 16.6989 22.5 16.5 22.5H7.5C7.30109 22.5 7.11032 22.421 6.96967 22.2803C6.82902 22.1397 6.75 21.9489 6.75 21.75V18.561C8.27888 19.662 10.1159 20.253 12 20.25ZM20.25 10.5C20.0511 10.5 19.8603 10.579 19.7197 10.7197C19.579 10.8603 19.5 11.0511 19.5 11.25V12.75C19.5 12.9489 19.579 13.1397 19.7197 13.2803C19.8603 13.421 20.0511 13.5 20.25 13.5H21.375C21.5739 13.5 21.7647 13.421 21.9053 13.2803C22.046 13.1397 22.125 12.9489 22.125 12.75V11.25C22.125 11.0511 22.046 10.8603 21.9053 10.7197C21.7647 10.579 21.5739 10.5 21.375 10.5H20.25Z" fill="#87B5E3"/>
<path d="M21 12C21 16.9703 16.9703 21 12 21C7.02975 21 3 16.9703 3 12C3 7.02975 7.02975 3 12 3C16.9703 3 21 7.02975 21 12Z" fill="#87B5E3"/>
<path d="M18.75 12C18.75 13.7902 18.0388 15.5071 16.773 16.773C15.5071 18.0388 13.7902 18.75 12 18.75C10.2098 18.75 8.4929 18.0388 7.22703 16.773C5.96116 15.5071 5.25 13.7902 5.25 12C5.25 10.2098 5.96116 8.4929 7.22703 7.22703C8.4929 5.96116 10.2098 5.25 12 5.25C13.7902 5.25 15.5071 5.96116 16.773 7.22703C18.0388 8.4929 18.75 10.2098 18.75 12Z" fill="#24364B"/>
<path d="M11.9995 6C11.8005 6 11.6098 6.07902 11.4691 6.21967C11.3285 6.36032 11.2495 6.55109 11.2495 6.75V11.25C11.2495 11.4075 11.2982 11.5545 11.3822 11.676L8.93195 14.4067C8.86616 14.4801 8.81546 14.5657 8.78276 14.6587C8.75006 14.7517 8.73598 14.8502 8.74135 14.9486C8.74671 15.047 8.7714 15.1434 8.81401 15.2322C8.85663 15.3211 8.91633 15.4007 8.9897 15.4665C9.06308 15.5323 9.1487 15.583 9.24166 15.6157C9.33463 15.6484 9.43313 15.6625 9.53154 15.6571C9.62994 15.6517 9.72633 15.6271 9.8152 15.5844C9.90406 15.5418 9.98366 15.4821 10.0495 15.4088L12.553 12.6172C12.6658 12.4913 12.7328 12.3309 12.743 12.162C12.7532 11.9932 12.7061 11.8259 12.6092 11.6873C12.7007 11.5599 12.7498 11.4069 12.7495 11.25V6.75C12.7495 6.55109 12.6704 6.36032 12.5298 6.21967C12.3891 6.07902 12.1984 6 11.9995 6Z" fill="#87B5E3"/>
<path d="M13.5 12C13.5 12.3978 13.342 12.7794 13.0607 13.0607C12.7794 13.342 12.3978 13.5 12 13.5C11.6022 13.5 11.2206 13.342 10.9393 13.0607C10.658 12.7794 10.5 12.3978 10.5 12C10.5 11.6022 10.658 11.2206 10.9393 10.9393C11.2206 10.658 11.6022 10.5 12 10.5C12.3978 10.5 12.7794 10.658 13.0607 10.9393C13.342 11.2206 13.5 11.6022 13.5 12Z" fill="#FCD53F"/>
</svg>
