<svg width="35" height="35" viewBox="0 0 35 35" fill="none" xmlns="http://www.w3.org/2000/svg">
<rect width="35" height="35" rx="7" fill="url(#paint0_linear_2951_2048)" fill-opacity="0.2"/>
<path d="M26.2117 12.6891C25.3972 11.7883 24.0363 11.3379 22.0621 11.3379H21.8321V11.2996C21.8321 9.68956 21.8321 7.69623 18.2288 7.69623H16.7721C13.1688 7.69623 13.1688 9.69914 13.1688 11.2996V11.3475H12.9388C10.9551 11.3475 9.60382 11.7979 8.78923 12.6987C7.84048 13.7529 7.86923 15.1712 7.96507 16.1391L7.97465 16.2062L8.04794 16.9758C8.0622 17.1255 8.143 17.2609 8.26892 17.3433C8.49961 17.4941 8.87772 17.7376 9.10548 17.8641C9.23965 17.9504 9.3834 18.0271 9.52715 18.1037C11.1659 19.0046 12.9676 19.6083 14.798 19.9054C14.8842 20.8062 15.2771 21.8604 17.3759 21.8604C19.4746 21.8604 19.8867 20.8158 19.9538 19.8862C21.9088 19.57 23.7967 18.8896 25.5026 17.8929C25.5601 17.8641 25.5984 17.8354 25.6463 17.8066C26.0239 17.5932 26.4155 17.3306 26.7731 17.073C26.8861 16.9915 26.9584 16.8654 26.9738 16.7269L26.988 16.5991L27.0359 16.1487C27.0455 16.0912 27.0455 16.0433 27.0551 15.9762C27.1317 15.0083 27.1126 13.6858 26.2117 12.6891ZM18.5451 19.2537C18.5451 20.2696 18.5451 20.4229 17.3663 20.4229C16.1876 20.4229 16.1876 20.2408 16.1876 19.2633V18.0558H18.5451V19.2537ZM14.5392 11.3379V11.2996C14.5392 9.67039 14.5392 9.06664 16.7721 9.06664H18.2288C20.4617 9.06664 20.4617 9.67998 20.4617 11.2996V11.3475H14.5392V11.3379Z" fill="#87B5E3"/>
<path d="M25.9701 19.1778C26.3238 19.0097 26.7307 19.2902 26.6953 19.6802L26.3547 23.4321C26.1534 25.3488 25.3676 27.3038 21.1509 27.3038H13.8484C9.63177 27.3038 8.84594 25.3488 8.64469 23.4417L8.32148 19.8864C8.28643 19.5009 8.68371 19.2206 9.03643 19.3799C10.1322 19.875 12.1118 20.7338 13.3454 21.0589C13.5096 21.1022 13.6425 21.2198 13.715 21.3734C14.2988 22.6109 15.5584 23.2692 17.3751 23.2692C19.1739 23.2692 20.4493 22.5855 21.0351 21.3449C21.1077 21.1912 21.2406 21.0736 21.405 21.0301C22.7151 20.6831 24.8233 19.7227 25.9701 19.1778Z" fill="#87B5E3"/>
<defs>
<linearGradient id="paint0_linear_2951_2048" x1="17.5" y1="0" x2="17.5" y2="35" gradientUnits="userSpaceOnUse">
<stop stop-color="#87B5E3"/>
<stop offset="1" stop-color="#DDCCEC"/>
</linearGradient>
</defs>
</svg>
