<svg width="20" height="22" viewBox="0 0 20 22" fill="none" xmlns="http://www.w3.org/2000/svg">
<path d="M3.75 1.25C3.75 1.05109 3.82902 0.860322 3.96967 0.71967C4.11032 0.579018 4.30109 0.5 4.5 0.5H13.5C13.6989 0.5 13.8897 0.579018 14.0303 0.71967C14.171 0.860322 14.25 1.05109 14.25 1.25V4.439C12.7211 3.33796 10.8841 2.74694 9 2.75C7.041 2.75 5.2275 3.37625 3.75 4.439V1.25ZM9 19.25C10.959 19.25 12.7725 18.6237 14.25 17.561V20.75C14.25 20.9489 14.171 21.1397 14.0303 21.2803C13.8897 21.421 13.6989 21.5 13.5 21.5H4.5C4.30109 21.5 4.11032 21.421 3.96967 21.2803C3.82902 21.1397 3.75 20.9489 3.75 20.75V17.561C5.27888 18.662 7.11594 19.253 9 19.25ZM17.25 9.5C17.0511 9.5 16.8603 9.57902 16.7197 9.71967C16.579 9.86032 16.5 10.0511 16.5 10.25V11.75C16.5 11.9489 16.579 12.1397 16.7197 12.2803C16.8603 12.421 17.0511 12.5 17.25 12.5H18.375C18.5739 12.5 18.7647 12.421 18.9053 12.2803C19.046 12.1397 19.125 11.9489 19.125 11.75V10.25C19.125 10.0511 19.046 9.86032 18.9053 9.71967C18.7647 9.57902 18.5739 9.5 18.375 9.5H17.25Z" fill="#87B5E3"/>
<path d="M18 11C18 15.9703 13.9703 20 9 20C4.02975 20 0 15.9703 0 11C0 6.02975 4.02975 2 9 2C13.9703 2 18 6.02975 18 11Z" fill="#A4AEEB"/>
<path d="M15.75 11C15.75 12.7902 15.0388 14.5071 13.773 15.773C12.5071 17.0388 10.7902 17.75 9 17.75C7.20979 17.75 5.4929 17.0388 4.22703 15.773C2.96116 14.5071 2.25 12.7902 2.25 11C2.25 9.20979 2.96116 7.4929 4.22703 6.22703C5.4929 4.96116 7.20979 4.25 9 4.25C10.7902 4.25 12.5071 4.96116 13.773 6.22703C15.0388 7.4929 15.75 9.20979 15.75 11Z" fill="white"/>
<path d="M9.00043 5C8.80152 5 8.61075 5.07902 8.4701 5.21967C8.32945 5.36032 8.25043 5.55109 8.25043 5.75V10.25C8.25043 10.4075 8.29918 10.5545 8.38318 10.676L5.93293 13.4067C5.86714 13.4801 5.81644 13.5657 5.78374 13.6587C5.75103 13.7517 5.73696 13.8502 5.74232 13.9486C5.74769 14.047 5.77238 14.1434 5.81499 14.2322C5.8576 14.3211 5.9173 14.4007 5.99068 14.4665C6.06405 14.5323 6.14967 14.583 6.24264 14.6157C6.33561 14.6484 6.43411 14.6625 6.53251 14.6571C6.63092 14.6517 6.72731 14.6271 6.81617 14.5844C6.90504 14.5418 6.98464 14.4821 7.05043 14.4088L9.55393 11.6172C9.66679 11.4913 9.73377 11.3309 9.74398 11.162C9.75419 10.9932 9.70704 10.8259 9.61018 10.6873C9.70172 10.5599 9.7508 10.4069 9.75043 10.25V5.75C9.75043 5.55109 9.67141 5.36032 9.53076 5.21967C9.39011 5.07902 9.19934 5 9.00043 5Z" fill="#87B5E3"/>
<path d="M10.5 11C10.5 11.3978 10.342 11.7794 10.0607 12.0607C9.77936 12.342 9.39782 12.5 9 12.5C8.60218 12.5 8.22064 12.342 7.93934 12.0607C7.65804 11.7794 7.5 11.3978 7.5 11C7.5 10.6022 7.65804 10.2206 7.93934 9.93934C8.22064 9.65804 8.60218 9.5 9 9.5C9.39782 9.5 9.77936 9.65804 10.0607 9.93934C10.342 10.2206 10.5 10.6022 10.5 11Z" fill="#FCD53F"/>
</svg>
